<?xml version="1.0" ?><!DOCTYPE svg  PUBLIC '-//W3C//DTD SVG 1.1//EN'  'http://www.w3.org/Graphics/SVG/1.1/DTD/svg11.dtd'><svg height="26.51px" id="Capa_1" style="enable-background:new 0 0 13.388 26.51;" version="1.1" viewBox="0 0 13.388 26.51" width="13.388px" xml:space="preserve" xmlns="http://www.w3.org/2000/svg" xmlns:xlink="http://www.w3.org/1999/xlink"><path d="  M1.339,4.769h7.894V0h2.129v4.768h0.686c0.736,0,1.338,0.415,1.338,0.923v19.895c0,0.507-0.602,0.923-1.338,0.923H1.339  C0.603,26.509,0,26.094,0,25.586V5.691C0,5.184,0.603,4.769,1.339,4.769L1.339,4.769z M2.244,6.58c-0.127,0-0.23,0.172-0.23,0.383  v6.884c0,0.21,0.104,0.382,0.23,0.382h8.9c0.126,0,0.23-0.172,0.23-0.382V6.963c0-0.21-0.104-0.383-0.23-0.383H2.244L2.244,6.58z   M1.084,16.052v1.896h3.069v-1.896H1.084L1.084,16.052z M5.212,16.052v1.896h3.07v-1.896H5.212L5.212,16.052z M9.296,16.052v1.896  h3.07v-1.896H9.296L9.296,16.052z M1.084,19.25v1.896h3.069V19.25H1.084L1.084,19.25z M5.212,19.25v1.896h3.07V19.25H5.212  L5.212,19.25z M9.296,19.25v1.896h3.07V19.25H9.296L9.296,19.25z M1.084,22.643v1.896h3.069v-1.896H1.084L1.084,22.643z   M5.212,22.643v1.896h3.07v-1.896H5.212L5.212,22.643z M9.296,22.643v1.896h3.07v-1.896H9.296z" style="fill-rule:evenodd;clip-rule:evenodd;fill:#231F20;stroke:#231F20;stroke-width:0.0011;stroke-miterlimit:2.6131;"/><g/><g/><g/><g/><g/><g/><g/><g/><g/><g/><g/><g/><g/><g/><g/></svg>